<svg width="99" height="157" viewBox="0 0 99 157" fill="none" xmlns="http://www.w3.org/2000/svg">
<path d="M2.39545 2.28882C6.96565 4.98939 12.0586 5.91151 17.0938 7.47093C28.6276 11.043 41.4999 14.4934 52.1438 20.2849C55.716 22.2286 54.8706 25.2722 54.9704 28.7647C55.1729 35.8523 56.6762 42.4972 55.677 49.6345C54.8999 55.1852 54.058 60.884 52.8504 66.3586C52.4227 68.2978 50.6333 71.9543 52.1438 73.8962C54.9081 77.4504 61.8547 79.1231 65.6644 80.6801C71.6098 83.11 78.7078 84.0565 84.2729 87.2755C89.5119 90.3059 88.8897 93.8299 88.8897 99.1002C88.8897 103.559 89.0894 108.08 88.7012 112.527C88.2468 117.732 86.1117 122.545 85.6391 127.743C84.829 136.654 89.312 142.413 91.2452 150.497C92.0915 154.037 92.5468 154.926 96.5215 154.926" stroke="black" stroke-width="3" stroke-linecap="round" stroke-linejoin="round"/>
</svg>
